<?xml version="1.0" encoding="utf-8"?>
<!-- Generator: Adobe Illustrator 26.0.0, SVG Export Plug-In . SVG Version: 6.00 Build 0)  -->
<svg version="1.1" id="Camada_1" xmlns="http://www.w3.org/2000/svg" xmlns:xlink="http://www.w3.org/1999/xlink" x="0px" y="0px"
	 viewBox="0 0 1080 1080" style="enable-background:new 0 0 1080 1080;" xml:space="preserve">
<style type="text/css">
	.st0{stroke:#000000;stroke-miterlimit:10;}
	.st1{fill:#273E93;}
</style>
<g>
	<g>
		<path class="st0" d="M431.43,592.66h2.97v35.71h20.65l-0.55,2.75h-23.07V592.66z"/>
	</g>
	<g>
		<path class="st0" d="M523.57,592.66v38.45h-2.97v-38.45H523.57z"/>
	</g>
	<g>
		<path class="st0" d="M595.67,593.09h13.4c7.36,0,11.32,3.9,11.32,9.45c0,4.56-2.75,7.53-5.93,8.4c2.75,0.77,7.31,3.46,7.31,9.5
			c0,7.69-5.77,11.1-12.47,11.1h-13.62V593.09z M608.09,609.62c6.65,0,9.17-2.47,9.17-6.92c0-3.79-2.64-6.87-8.02-6.87h-10.66v13.79
			H608.09z M598.58,628.8h10.82c5.05,0,9.28-2.53,9.28-8.19c0-4.89-3.13-8.24-10.88-8.24h-9.23V628.8z"/>
	</g>
	<g>
		<path class="st0" d="M695.13,613.58v17.96h-3.02v-38.45h13.79c7.58,0,11.59,4.07,11.59,10.11c0,4.89-2.91,8.08-7.2,9.01
			c3.96,0.93,6.59,3.52,6.59,10.05v1.48c0,2.69-0.22,6.32,0.49,7.8h-3.02c-0.71-1.65-0.55-4.72-0.55-8.02v-0.99
			c0-6.32-1.87-8.95-9.23-8.95H695.13z M695.13,610.83h9.28c6.76,0,9.89-2.53,9.89-7.58c0-4.72-3.08-7.42-9.06-7.42h-10.11V610.83z"
			/>
	</g>
	<g>
		<path class="st0" d="M789.53,617.82l-4.89,13.29h-3.02l14.12-38.45h3.52l14.72,38.45h-3.24l-5-13.29H789.53z M804.74,615.07
			c-4.29-11.43-6.48-16.92-7.25-19.5h-0.06c-0.93,2.91-3.41,9.72-6.87,19.5H804.74z"/>
	</g>
	<g>
		<path class="st0" d="M884.34,613.15v17.96h-3.02v-38.45h13.79c7.58,0,11.59,4.07,11.59,10.11c0,4.89-2.91,8.08-7.2,9.01
			c3.96,0.93,6.59,3.52,6.59,10.05v1.48c0,2.69-0.22,6.32,0.5,7.8h-3.02c-0.71-1.65-0.55-4.72-0.55-8.02v-0.99
			c0-6.32-1.87-8.95-9.23-8.95H884.34z M884.34,610.4h9.28c6.76,0,9.89-2.53,9.89-7.58c0-4.72-3.08-7.42-9.06-7.42h-10.11V610.4z"/>
	</g>
	<g>
		<path class="st0" d="M984.95,631.11v-14.45c0-0.33-0.11-0.71-0.22-0.88L971,592.66h3.46c3.84,6.54,10.55,17.91,12.19,20.76
			c1.65-2.86,8.4-14.12,12.52-20.76h3.3L988.14,616c-0.11,0.22-0.17,0.44-0.17,0.82v14.28H984.95z"/>
	</g>
</g>
<g>
	<path d="M485.66,568.12c-15.77,0-29.36-4.12-40.75-12.37c-11.4-8.25-19.7-18.51-24.89-30.8c-5.19-12.29-7.79-25.6-7.79-39.93
		c0-27.41,8.11-49.39,24.33-65.92c14.2-14.46,30.65-21.68,49.34-21.68c11.16,0,22.07,1.85,32.74,5.55c10.67,3.7,16.8,5.64,18.39,5.8
		c2.65,17.91,4.36,31.12,5.12,39.62c-2.96,1.67-5.54,2.08-7.74,1.25c-7.9-28.66-24.9-42.99-51.02-42.99
		c-13.59,0-26.01,7.58-37.24,22.75c-4.4,5.92-7.82,13.17-10.25,21.75c-2.43,8.58-3.64,18.25-3.64,29c0,13.17,1.86,25.46,5.58,36.87
		c3.72,11.42,9.72,21.06,17.99,28.93c8.28,7.88,18.15,11.81,29.61,11.81c10.86,0,20.54-2.19,29.04-6.56
		c8.5-4.38,16.85-11.52,25.06-21.44c2.35,0,4.13,1.29,5.35,3.88C528.85,556.63,509.12,568.12,485.66,568.12z"/>
	<path d="M709.26,481.47c0,21.31-4.82,39.46-14.45,54.44c-6.52,10.24-14.85,18.17-24.97,23.79c-10.12,5.62-21.52,8.43-34.19,8.43
		c-20.48,0-37.75-7.5-51.82-22.48c-14.07-14.99-21.1-34.77-21.1-59.34c0-22.52,5.31-41.76,15.93-57.72
		c6.52-9.81,14.58-17.45,24.18-22.94c9.59-5.48,20.08-8.23,31.46-8.23c21.62,0,39.51,7.59,53.7,22.76
		C702.17,435.36,709.26,455.78,709.26,481.47z M631.22,406.66c-5.61,0-11.05,1.49-16.33,4.46c-5.27,2.97-10.17,7.33-14.68,13.07
		c-4.51,5.74-8.17,13.65-10.98,23.72c-2.81,10.08-4.21,21.43-4.21,34.06c0,23.37,5.44,42.03,16.33,55.99
		c10.88,13.96,23.87,20.93,38.97,20.93c13.65,0,24.82-6.56,33.5-19.69c8.68-13.13,13.03-30.76,13.03-52.89
		c0-24.85-5.27-44.34-15.81-58.47C660.49,413.72,647.22,406.66,631.22,406.66z"/>
	<path d="M752.15,400.82c2.51,0,8.19-0.09,17.04-0.26c8.85-0.18,16.02-0.27,21.49-0.27c22.35,0,41.33,8.46,56.94,25.38
		c15.61,16.92,23.41,37.32,23.41,61.19c0,14.98-2.37,27.9-7.11,38.76c-4.74,10.86-11.02,19.1-18.87,24.71
		c-7.84,5.62-15.91,9.65-24.21,12.11c-8.3,2.45-16.96,3.68-25.97,3.68c-9.34,0-18.37-0.09-27.06-0.26
		c-8.7-0.18-13.85-0.27-15.44-0.27c-4.99,0-15.04,0.18-30.15,0.53c-0.76-0.71-1.13-2.14-1.13-4.3s0.38-3.68,1.13-4.56
		c8.63-0.33,14.12-1.73,16.49-4.21c2.36-2.48,3.55-8.8,3.55-18.96V432.33c0-10.16-1.18-16.46-3.55-18.9
		c-2.36-2.44-7.86-3.82-16.49-4.15c-0.75-0.7-1.13-2.16-1.13-4.36c0-2.2,0.38-3.74,1.13-4.62
		C737.72,400.65,747.69,400.82,752.15,400.82z M762.28,544c0,4.54,1.59,7.83,4.77,9.85c3.18,2.02,10.04,3.04,20.56,3.04
		c8.86,0,16.7-0.97,23.52-2.91c6.82-1.94,13.18-5.18,19.09-9.73c5.91-4.54,10.45-11.13,13.63-19.77c3.18-8.63,4.77-19.15,4.77-31.54
		c0-10.33-1.16-20.22-3.47-29.68c-2.31-9.46-5.97-18.34-10.96-26.65c-5-8.3-11.99-14.89-20.96-19.77
		c-8.98-4.87-19.45-7.31-31.41-7.31c-13.03,0-19.54,4.13-19.54,12.39V544z"/>
	<path d="M993.79,522.61c-5.52,22.53-15.65,33.79-30.39,33.79h-31.64c-5.52,0-8.28-3.7-8.28-11.09v-62.28h21.1
		c6.35,0,11.08,0.79,14.18,2.36c3.1,1.57,4.96,3.37,5.56,5.41c0.6,2.04,1.06,5.39,1.36,10.05c0.68,0.85,1.95,1.27,3.81,1.27
		c1.86,0,3.17-0.48,3.92-1.44c-0.3-11.89-0.46-19.37-0.46-22.45c0-4.53,0.15-11.95,0.46-22.27c-0.76-0.84-2.09-1.26-3.98-1.26
		c-1.9,0-3.15,0.42-3.75,1.27c-0.3,7.72-1.53,12.62-3.69,14.7c-2.16,2.08-7.96,3.12-17.42,3.12h-21.1V421.5
		c0-3.31,0.72-6.06,2.15-8.23c1.44-2.17,3.47-3.25,6.12-3.25h12.77c-0.58-3.08-1.14-6.16-1.73-9.23h-29.55l-30.15-0.5
		c-0.61,0.88-0.91,2.46-0.91,4.73c0,2.28,0.3,3.78,0.91,4.5c8.72,0.33,14.29,1.71,16.72,4.14c2.43,2.43,3.64,8.7,3.64,18.82v101.33
		c0,10.12-1.2,16.42-3.6,18.88c-2.4,2.47-7.92,3.87-16.54,4.2c-0.6,0.92-0.9,2.5-0.9,4.75c0,2.25,0.3,3.75,0.91,4.48
		c7.63-0.17,17.72-0.33,30.27-0.5h49.98c7.42,0,17.34,0.17,29.76,0.5c3.87-14.83,6.75-28.91,8.65-42.26
		C999.33,522.36,996.6,521.94,993.79,522.61z"/>
	<path d="M956.57,410.03h8.66c8.01,0,13.64,2.13,16.88,6.38c3.25,4.25,6.35,11.61,9.29,22.08c2.65,0.51,5.23,0.09,7.74-1.27
		c-2.28-18.68-4.02-30.91-5.23-36.67c0-0.5-0.3-0.75-0.91-0.75c-3.57,0.67-7.36,1-11.38,1h-26.79
		C955.42,403.87,955.98,406.95,956.57,410.03z"/>
	<polygon points="942.8,400.79 954.84,400.79 956.57,410.03 944.53,410.03 	"/>
</g>
<g>
	<g>
		<g>
			<path class="st1" d="M338.04,651.54c-19.98-6.28-38.41-16.49-58.79-22c-44.2-11.95-135.89-8.48-169.34,7.61
				c-2.43,10.76-4.93,21.86-7.68,34.05c19.47-7.37,38.84-12.37,58.73-14.3c56.85-5.51,112.66-2.38,165.92,21.2
				c9.36,4.15,16.87-2.78,23.86-7.78c7.78-5.58,15.42-10.95,25.06-12.84c12.87-2.52,24.63-2.03,34.44,8.57
				c3.52,3.81,7.8,6.92,12.08,10.15c2.6,1.97,6.08,2.35,9.03,0.96c44.27-20.84,91.22-23.69,139.38-19.09
				c-13.35,2.31-26.78,4.25-40.04,6.99c-32.18,6.64-64.05,14.59-95.25,24.98c-9.93,3.31-17.7-0.57-23.66-7.43
				c-13.82-15.92-29.35-17.82-46.35-6.53c-27.3,18.14-55.67,9.6-83.81,3.94c-60.04-12.07-119.44-12.64-178.16,7.38
				c-6.97,2.38-15.09,2.34-21.99,0.95c-3.15-0.63-4.85-4.08-3.51-7c8.26-18.05,9.46-37.95,14.07-57c0.39-1.61,2.23-3.68,3.78-4.08
				c60.98-16.09,122.49-24.9,184.69-7.96c22.91,6.24,44.72,16.13,59.32,36.72C338.93,650.31,338.95,650.28,338.04,651.54z"/>
			<path class="st1" d="M316.13,353.75c6.52,14.94,12.8,29.35,19.23,44.08c-13.83,10.33-28.76,18.92-45.17,26.72
				c-7.16-15.23-14.28-30.41-21.64-46.07C285.78,371.79,301.43,364.27,316.13,353.75z"/>
			<path class="st1" d="M418.61,355.49c0,17.24,0,33.81,0,51.27c-15.67,1.16-31.98,2.37-48.68,3.6c0-18.01,0-34.9,0-52.54
				C386.09,357.76,401.99,358.22,418.61,355.49z"/>
			<path class="st1" d="M320.73,431.89c-1.08,12.48-2.2,25.47-3.4,39.37c-14.93,0.9-29.43,1.77-44.5,2.67
				c0.69-14.2,1.34-27.57,2.04-42.04C289.89,431.89,305.04,431.89,320.73,431.89z"/>
			<path class="st1" d="M336.77,446.99c6.13-12.79,11.77-24.58,17.53-36.61c13.32,6.23,26.17,12.24,39.65,18.54
				c-5.66,11.54-11.32,23.08-17.33,35.32C363.42,458.52,350.51,452.93,336.77,446.99z"/>
			<path class="st1" d="M202.72,477.25c7.65-12,14.78-23.18,22.39-35.1c10.61,6.58,20.94,12.99,32.27,20.03
				c-7.4,11.86-14.52,23.26-22.18,35.54C224.08,490.71,213.64,484.14,202.72,477.25z"/>
			<path class="st1" d="M171.1,543.11c3.25-12.73,6.27-24.57,9.49-37.2c11.17,2.75,21.89,5.39,33.72,8.31
				c-3.02,12.33-6.03,24.57-9.17,37.4C193.68,548.75,182.68,546,171.1,543.11z"/>
			<path class="st1" d="M277.65,519.19c-10.84,6.53-21.08,12.7-32.02,19.3c-5.85-9.86-11.63-19.59-17.73-29.86
				c11.16-6.69,21.38-12.81,32.01-19.19C265.83,499.36,271.51,508.89,277.65,519.19z"/>
			<path class="st1" d="M400.17,355.71c-3.38-12.62-6.44-24.05-9.57-35.73c10.33-5.26,19.85-10.12,29.84-15.21
				c3.53,11.21,7,22.19,10.67,33.84C421.05,344.17,411.11,349.66,400.17,355.71z"/>
			<path class="st1" d="M306.37,303.8c4.34,7.87,8.72,15.82,13.34,24.19c-7.31,9.16-14.6,18.31-22.85,28.65
				c-7.02-9.47-13.13-17.72-19.4-26.18C287.57,321.14,296.81,312.62,306.37,303.8z"/>
			<path class="st1" d="M225.68,584.36c-8.2-7.36-15.56-13.96-23.74-21.3c7.71-8.86,14.94-17.17,22.53-25.89
				c7.93,7.12,15.54,13.96,23.75,21.34C240.59,567.25,233.37,575.54,225.68,584.36z"/>
			<path class="st1" d="M314.73,480.9c2.05,9.24,3.97,17.9,6.03,27.16c-9.15,2.97-18.06,5.86-27.78,9.01
				c-2.19-9.55-4.27-18.6-6.45-28.06C296.26,486.21,305.4,483.58,314.73,480.9z"/>
			<path class="st1" d="M370.95,471.38c-1.13,9.23-2.17,17.72-3.3,27c-9.6-1.6-18.65-3.1-28.3-4.7c1.26-9.14,2.44-17.72,3.69-26.84
				C352.27,468.33,361.18,469.78,370.95,471.38z"/>
			<path class="st1" d="M222.1,426.91c-2.08,9.18-4.01,17.64-6.12,26.94c-8.18-1.84-16-3.6-24.31-5.47
				c2.24-8.92,4.4-17.49,6.75-26.83C206.17,423.3,213.66,425,222.1,426.91z"/>
			<path class="st1" d="M298.2,545.65c-6.04,5.77-11.55,11.04-16.81,16.07c-6-5.8-11.86-11.46-17.5-16.9
				c5.58-5.92,11.01-11.67,16.72-17.72C286.63,533.44,292.22,539.33,298.2,545.65z"/>
			<path class="st1" d="M153.18,520.77c-0.55-8.67-1.05-16.55-1.62-25.55c7.49-0.44,14.8-0.87,22.67-1.33
				c0.39,8.6,0.76,16.75,1.14,25.15C167.79,519.63,160.74,520.18,153.18,520.77z"/>
			<path class="st1" d="M273.63,575.17c-3.53,6.74-6.8,13-10.32,19.72c-6.94-3.56-13.23-6.79-20.4-10.48
				c3.15-6.48,6.21-12.77,9.67-19.89C259.73,568.14,266.29,571.46,273.63,575.17z"/>
			<path class="st1" d="M299.38,532.18c4.39-5.59,8.25-10.51,12.59-16.03c6.57,4.28,12.89,8.4,19.84,12.93
				c-4.19,5.87-7.9,11.08-12.05,16.9C313.11,541.49,306.6,537.07,299.38,532.18z"/>
			<path class="st1" d="M339.83,509.56c5.96-2.89,11.28-5.48,17.04-8.27c4.17,6.67,8.19,13.1,12.63,20.21
				c-5.7,2.84-10.96,5.46-17.05,8.49C348.23,523.17,344.18,516.61,339.83,509.56z"/>
			<path class="st1" d="M294.9,554.64c6.87,1.11,12.9,2.08,19.63,3.17c-0.81,5.69-1.57,11-2.44,17.07
				c-6.49-0.95-12.65-1.85-19.67-2.88C293.24,566.22,294,560.92,294.9,554.64z"/>
			<path class="st1" d="M275.7,600.23c-0.73-5.28-1.41-10.28-2.22-16.14c6.2-0.76,11.99-1.46,18.27-2.23
				c0.72,5.52,1.35,10.35,2.03,15.56C287.56,598.39,281.91,599.27,275.7,600.23z"/>
			<path class="st1" d="M321.23,561.83c0.94-5.27,1.8-10.08,2.75-15.42c6.49,1.54,12.39,2.94,18.87,4.48
				c-1.23,5.22-2.36,9.99-3.55,15.01C333.34,564.55,327.71,563.29,321.23,561.83z"/>
			<path class="st1" d="M347,543.11c3.08-3.66,5.91-7.03,9.23-10.97c4.62,3.98,8.92,7.69,13.66,11.77
				c-3.25,3.95-6.04,7.33-9.08,11.02C356.14,550.93,351.78,547.2,347,543.11z"/>
			<path class="st1" d="M315.89,573.13c5.11-0.34,9.48-0.63,14.36-0.96c0.53,4.55,0.99,8.57,1.48,12.85
				c-4.81,0.77-9.04,1.44-14.21,2.27C317,582.72,316.49,578.3,315.89,573.13z"/>
			<path class="st1" d="M296.67,595.1c4.2-2.02,7.74-3.72,11.79-5.66c1.83,3.38,3.61,6.64,5.8,10.67
				c-4.01,2.16-7.81,4.21-12.08,6.51C300.32,602.74,298.65,599.24,296.67,595.1z"/>
			<path class="st1" d="M358.57,590.84c-0.07-1.48-0.14-2.97-0.23-4.87c1.92-0.24,3.83-0.48,6.17-0.77
				c0.95-1.58,2.03-3.39,3.38-5.66c2.23,0.97,4.42,1.92,7.16,3.11c-0.88,2.22-1.64,4.13-2.43,6.1c-1.75,0-3.2,0-4.86,0
				c-0.16,1.54-0.32,3.16-0.53,5.25c-2.61,0-5.2,0-7.78,0l0.02-0.06c0.05-0.33,0.01-0.65-0.13-0.96
				C359.09,592.27,358.83,591.56,358.57,590.84z"/>
			<path class="st1" d="M337.49,568.99c4.2-1.14,7.53-2.04,11.34-3.07c1.11,3.07,2.09,5.79,3.34,9.26c-3.81,1-7.26,1.91-11.22,2.95
				C339.83,575.18,338.76,572.35,337.49,568.99z"/>
			<path class="st1" d="M357.23,565.88c0-3.03,0-5.43,0-8.44c3.76,0.27,7.29,0.51,11.02,0.78c0,3.26,0,6,0,9.31
				C364.6,566.99,361.24,566.49,357.23,565.88z"/>
			<path class="st1" d="M338.09,581.59c2.17,1.86,3.75,3.22,5.82,4.99c-2.41,2.94-4.21,5.13-6.29,7.67
				c-2.2-1.99-3.96-3.57-6.23-5.63C333.74,586.15,335.72,584.08,338.09,581.59z"/>
			<path class="st1" d="M314.16,604.01c1.53-2.72,2.72-4.84,4.11-7.31c1.84,0.26,3.56,0.5,6,0.84c-0.69,3.09-1.31,5.85-2.04,9.14
				C319.48,605.77,317.21,605.02,314.16,604.01z"/>
			<path class="st1" d="M359.51,594.78c0,1.28,0,2.56,0,4.19c-1.79,0.5-3.45,0.97-5.6,1.57c-0.74-2.07-1.37-3.82-2.18-6.08
				c2.77-0.97,5.18-1.82,7.59-2.66c0.02,0.34,0.05,0.69,0.07,1.03c0.03,0.33,0.07,0.66,0.1,0.99
				C359.33,594.15,359.34,594.47,359.51,594.78z"/>
			<path class="st1" d="M332.9,603.49c1.98-1.55,3.37-2.64,5.41-4.23c1.19,1.29,2.26,2.46,3.58,3.89c-1.43,1.94-2.56,3.47-4.05,5.5
				C336.17,606.91,334.78,605.45,332.9,603.49z"/>
			<path class="st1" d="M338.43,651.66c0.42-0.95,0.83-1.9,1.25-2.84C340.72,650.41,341.34,651.81,338.43,651.66z"/>
			<polygon class="st1" points="359.39,592.83 359.51,594.78 357.92,595.43 			"/>
			<polygon class="st1" points="358.57,590.84 358.65,593.95 360.45,594 359.47,589.6 			"/>
		</g>
	</g>
	<polygon class="st1" points="338.43,651.66 337.53,651.38 339.49,649.53 	"/>
</g>
</svg>
